<?xml version="1.0" encoding="UTF-8" standalone="no"?>
<!-- Created with Inkscape (http://www.inkscape.org/) -->

<svg
   width="210mm"
   height="297mm"
   viewBox="0 0 210 297"
   version="1.1"
   id="svg8"
   inkscape:export-filename="/home/ethan/git/HedgewarsImages/Assets/Weapons/AirMineConcept.png"
   inkscape:export-xdpi="87.334305"
   inkscape:export-ydpi="87.334305"
   inkscape:version="1.1.1 (1:1.1+202109281949+c3084ef5ed)"
   sodipodi:docname="AirMine.svg"
   xmlns:inkscape="http://www.inkscape.org/namespaces/inkscape"
   xmlns:sodipodi="http://sodipodi.sourceforge.net/DTD/sodipodi-0.dtd"
   xmlns:xlink="http://www.w3.org/1999/xlink"
   xmlns="http://www.w3.org/2000/svg"
   xmlns:svg="http://www.w3.org/2000/svg"
   xmlns:rdf="http://www.w3.org/1999/02/22-rdf-syntax-ns#"
   xmlns:cc="http://creativecommons.org/ns#"
   xmlns:dc="http://purl.org/dc/elements/1.1/">
  <defs
     id="defs2">
    <linearGradient
       inkscape:collect="always"
       id="linearGradient822">
      <stop
         style="stop-color:#f49d9d;stop-opacity:1"
         offset="0"
         id="stop818" />
      <stop
         style="stop-color:#ff0000;stop-opacity:1"
         offset="1"
         id="stop820" />
    </linearGradient>
    <radialGradient
       inkscape:collect="always"
       xlink:href="#linearGradient822"
       id="radialGradient824"
       cx="101.06425"
       cy="114.35951"
       fx="101.06425"
       fy="114.35951"
       r="38.68586"
       gradientTransform="matrix(0.6877561,0,0,0.86539056,32.34713,39.719531)"
       gradientUnits="userSpaceOnUse" />
  </defs>
  <sodipodi:namedview
     id="base"
     pagecolor="#ffffff"
     bordercolor="#666666"
     borderopacity="1.0"
     inkscape:pageopacity="0.0"
     inkscape:pageshadow="2"
     inkscape:zoom="1"
     inkscape:cx="190.5"
     inkscape:cy="568.5"
     inkscape:document-units="mm"
     inkscape:current-layer="layer3"
     showgrid="false"
     inkscape:object-nodes="false"
     inkscape:window-width="1920"
     inkscape:window-height="1027"
     inkscape:window-x="900"
     inkscape:window-y="28"
     inkscape:window-maximized="1"
     inkscape:pagecheckerboard="0" />
  <metadata
     id="metadata5">
    <rdf:RDF>
      <cc:Work
         rdf:about="">
        <dc:format>image/svg+xml</dc:format>
        <dc:type
           rdf:resource="http://purl.org/dc/dcmitype/StillImage" />
        <dc:title />
      </cc:Work>
    </rdf:RDF>
  </metadata>
  <g
     inkscape:groupmode="layer"
     id="layer2"
     inkscape:label="Reference Mine"
     style="display:none"
     sodipodi:insensitive="true" />
  <g
     inkscape:label="Layer 1"
     inkscape:groupmode="layer"
     id="layer1"
     style="display:none"
     sodipodi:insensitive="true">
    <path
       style="opacity:1;fill:url(#radialGradient824);fill-opacity:1;stroke:none;stroke-width:0.17193274;stroke-opacity:0.8085104"
       d="m 129.05055,155.48993 c 0,17.04657 -15.02681,35.74651 -27.19587,35.92741 -12.495272,0.18575 -25.835034,-18.88084 -25.835035,-35.92741 10e-7,-17.04656 11.871372,-30.86554 26.515455,-30.86554 14.64408,0 26.51545,13.81898 26.51545,30.86554 z"
       id="path815"
       inkscape:connector-curvature="0"
       sodipodi:nodetypes="sssss" />
    <path
       style="opacity:1;fill:#ff0000;fill-opacity:1;stroke:none;stroke-width:0.26458332;stroke-opacity:0.8085104"
       d="m 100.58041,189.82414 1.40153,-0.12367 c -1.13605,0.29643 -0.32336,5.71701 3.38016,9.27484 -2.42446,-0.91638 -4.77526,-0.72791 -7.090092,0 2.133202,-3.05039 1.767492,-6.10078 2.308402,-9.15117 z"
       id="rect826"
       inkscape:connector-curvature="0"
       sodipodi:nodetypes="ccccc" />
    <path
       style="fill:none;stroke:#000000;stroke-width:0.565;stroke-linecap:butt;stroke-linejoin:miter;stroke-miterlimit:4;stroke-dasharray:none;stroke-opacity:1"
       d="m 101.05751,192.74212 c 1.55796,3.76185 1.69697,6.95611 0.8883,9.77131 0.65191,2.60765 -1.32804,10.72008 -1.06597,11.19259 1.48962,2.6858 0.93203,16.14383 0.35533,15.27877 -4.280367,8.47444 -2.197797,7.05096 -2.664907,9.59365 v 0"
       id="path840"
       inkscape:connector-curvature="0"
       sodipodi:nodetypes="ccsccc" />
    <path
       style="opacity:1;fill:#000000;fill-opacity:1;stroke:none;stroke-width:0.10892171;stroke-opacity:0.8085104"
       d="m 97.163796,192.07502 c -0.675329,0.77417 -1.067562,1.37286 -0.633465,2.06197 0.581229,0.92271 2.255401,1.4253 3.451598,0.67199 1.196241,-0.7534 1.694841,-2.11226 1.113711,-3.03508 -0.58115,-0.92289 -2.022067,-1.06027 -3.218356,-0.30688 -0.268582,0.1691 -0.510488,0.37529 -0.713488,0.608 z m 0.353821,0.3415 c 0.146791,-0.16831 0.434882,-0.52636 0.633381,-0.64506 1.221806,-0.24508 1.983362,-0.38188 2.452422,0.32646 0.4691,0.7084 0.28042,1.73463 -0.753926,2.23883 -1.812035,0.42457 -2.166683,0.59957 -2.635682,-0.10893 -0.350173,-0.52904 -0.185612,-1.25214 0.303767,-1.81133 z"
       id="path844"
       inkscape:connector-curvature="0"
       sodipodi:nodetypes="cccccccccccc" />
    <path
       style="opacity:1;fill:#000000;fill-opacity:1;stroke:none;stroke-width:0.10892171;stroke-opacity:0.8085104"
       d="m 104.97587,191.69022 c -0.27658,-0.21657 -1.23733,-0.84235 -1.23733,-0.84235 -1.4925,-0.17991 -2.50174,0.0968 -2.89742,1.19937 -0.39564,1.10246 0.42378,2.40544 1.83029,2.9104 1.40661,0.50494 2.86773,0.0206 3.26357,-1.08186 0.28799,-0.80212 -0.12861,-1.53483 -0.9591,-2.18558 z m -0.28513,0.27371 c 0.64864,0.50616 0.69701,1.24068 0.5375,1.78113 -0.21919,0.74295 -1.73779,1.53113 -2.52058,0.68376 -1.06061,-0.4413 -1.09504,-1.52443 -1.32046,-2.28181 0.21919,-0.74295 1.25685,-0.98743 2.31758,-0.54603 0.25693,0.10687 0.77001,0.19443 0.98596,0.36295 z"
       id="path846"
       inkscape:connector-curvature="0"
       sodipodi:nodetypes="cccccccccccc" />
    <g
       id="g894"
       transform="translate(-7.4460502,-3.4985688)">
      <path
         sodipodi:nodetypes="ccccc"
         inkscape:connector-curvature="0"
         id="path865"
         d="m 110.35955,241.32446 c 0,1.64962 -1.861,2.98691 -4.15666,2.98691 -2.29567,0 -4.15667,-1.33728 -4.15667,-2.98691 0,-1.64963 1.861,-2.98691 4.15667,-2.98691 2.29566,0 4.15666,1.33729 4.15666,2.98691 z"
         style="opacity:1;fill:#ff2a2a;fill-opacity:1;stroke:#000000;stroke-width:0.29236135;stroke-opacity:1" />
      <path
         sodipodi:nodetypes="cccccc"
         inkscape:connector-curvature="0"
         id="path875"
         d="m 102.18495,240.49403 -0.29347,-1.52479 -0.27928,-1.49641 1.49561,0.53003 1.46725,0.48748 c -0.99279,0.43557 -2.03387,1.03556 -2.39011,2.00369 z"
         inkscape:transform-center-y="0.2021856"
         inkscape:transform-center-x="-0.26505559"
         style="opacity:1;fill:#ffff00;fill-opacity:1;stroke:#000000;stroke-width:0.19805218;stroke-opacity:1" />
      <path
         sodipodi:nodetypes="cccccc"
         inkscape:connector-curvature="0"
         id="path877"
         d="m 104.7284,238.40312 0.78907,-1.35092 0.78907,-1.35093 0.7754,1.35882 0.7754,1.35882 c -1.14571,-0.17224 -2.08588,-0.22969 -3.12894,-0.0158 z"
         inkscape:transform-center-y="-0.44769044"
         inkscape:transform-center-x="0.004550096"
         style="opacity:1;fill:#ffff00;fill-opacity:1;stroke:#000000;stroke-width:0.19805218;stroke-opacity:1" />
      <path
         sodipodi:nodetypes="cccccc"
         inkscape:connector-curvature="0"
         id="path879"
         d="m 107.81934,238.31329 1.48261,-0.49948 1.48262,-0.49949 -0.30874,1.53373 -0.30874,1.53373 c -0.62404,-0.98655 -1.51443,-1.52485 -2.34775,-2.06849 z"
         inkscape:transform-center-y="0.17824555"
         inkscape:transform-center-x="0.2883631"
         style="opacity:1;fill:#ffff00;fill-opacity:1;stroke:#000000;stroke-width:0.19805218;stroke-opacity:1" />
      <path
         sodipodi:nodetypes="csccc"
         inkscape:connector-curvature="0"
         id="path869"
         d="m 108.92415,240.14494 c 0,1.00405 -1.2187,1.81877 -2.72477,1.82155 -1.50607,0.003 -2.73152,-0.80743 -2.73986,-1.81147 -0.008,-1.00403 1.2036,-1.82324 2.70962,-1.83157 1.81968,0.005 2.7911,1.01529 2.75501,1.82149 z"
         style="opacity:1;fill:#ffff00;fill-opacity:1;stroke:#000000;stroke-width:0.24044485;stroke-opacity:1" />
    </g>
    <path
       style="fill:none;stroke:#000000;stroke-width:0.465;stroke-linecap:butt;stroke-linejoin:miter;stroke-miterlimit:4;stroke-dasharray:none;stroke-opacity:1"
       d="m 96.08175,239.97193 1.605081,-5.21651"
       id="path898"
       inkscape:connector-curvature="0" />
    <path
       style="fill:none;stroke:#000000;stroke-width:0.465;stroke-linecap:butt;stroke-linejoin:miter;stroke-miterlimit:4;stroke-dasharray:none;stroke-opacity:1"
       d="m 96.964545,240.45346 1.123559,-5.61779"
       id="path900"
       inkscape:connector-curvature="0" />
    <path
       style="fill:none;stroke:#000000;stroke-width:0.465;stroke-linecap:butt;stroke-linejoin:miter;stroke-miterlimit:4;stroke-dasharray:none;stroke-opacity:1"
       d="m 98.00785,240.77447 2.24711,-6.01905"
       id="path902"
       inkscape:connector-curvature="0" />
    <path
       style="fill:none;stroke:#000000;stroke-width:0.465;stroke-linecap:butt;stroke-linejoin:miter;stroke-miterlimit:4;stroke-dasharray:none;stroke-opacity:1"
       d="m 100.81673,240.53371 0.16051,-5.37702"
       id="path904"
       inkscape:connector-curvature="0" />
  </g>
  <g
     inkscape:groupmode="layer"
     id="layer3"
     inkscape:label="Layer 2">
    <path
       sodipodi:nodetypes="ccccc"
       inkscape:connector-curvature="0"
       id="path874"
       d="m 42.372073,189.82414 1.40153,-0.12367 c -1.13605,0.29643 -0.32336,5.71701 3.380157,9.27484 -2.424457,-0.91638 -4.775257,-0.72791 -7.090089,0 2.133202,-3.05039 1.767492,-6.10078 2.308402,-9.15117 z"
       style="display:inline;opacity:1;fill:#1b9608;fill-opacity:1;stroke:#000000;stroke-width:0.365;stroke-opacity:1;stroke-miterlimit:4;stroke-dasharray:none"
       inkscape:export-filename="/home/ethan/git/HedgewarsImages/Assets/Weapons/AirMine2.png"
       inkscape:export-xdpi="95.129997"
       inkscape:export-ydpi="95.129997" />
    <g
       id="g998"
       style="stroke-width:0.4;stroke-miterlimit:4;stroke-dasharray:none;stroke:none;stroke-opacity:1"
       inkscape:export-filename="/home/ethan/git/HedgewarsImages/Assets/Weapons/AirMine2.png"
       inkscape:export-xdpi="95.129997"
       inkscape:export-ydpi="95.129997">
      <path
         id="path988"
         style="opacity:1;stroke-opacity:1;fill-opacity:1;stroke:none;stroke-width:0.4;display:inline;fill:#00a120;stroke-miterlimit:4;stroke-dasharray:none"
         d="M70.842198 155.48993C70.842198 172.5365 55.815397 191.23644 43.646343 191.41734C31.151071 191.60309 17.811309 172.5365 17.811308 155.48993C17.811309 138.44337 29.68268 124.62439 44.326763 124.62439C58.970834 124.62439 70.842198 138.44337 70.842198 155.48993C70.842198 155.48993 70.842198 155.48993 70.842198 155.48993" />
      <path
         id="path990"
         style="opacity:1;stroke-opacity:1;fill-opacity:1;stroke:none;stroke-width:0.4;display:inline;fill:#0ca62b;stroke-miterlimit:4;stroke-dasharray:none"
         d="M68.22494825 152.395815C68.22494825 167.72119 54.7154045 184.5329975 43.7750605 184.6956325C32.54143725 184.862625 20.548592 167.72119 20.548591 152.395815C20.548592 137.0704475 31.22130975 124.64677 44.3867785 124.64677C57.55223675 124.64677 68.22494825 137.0704475 68.22494825 152.395815C68.22494825 152.395815 68.22494825 152.395815 68.22494825 152.395815" />
      <path
         id="path992"
         style="opacity:1;stroke-opacity:1;fill-opacity:1;stroke:none;stroke-width:0.4;display:inline;fill:#19ab37;stroke-miterlimit:4;stroke-dasharray:none"
         d="M65.6076985 149.3017C65.6076985 162.90588 53.615412 177.829555 43.903778 177.973925C33.9318035 178.12216 23.285875 162.90588 23.285874 149.3017C23.285875 135.697525 32.7599395 124.66915 44.446794 124.66915C56.1336395 124.66915 65.6076985 135.697525 65.6076985 149.3017C65.6076985 149.3017 65.6076985 149.3017 65.6076985 149.3017" />
      <path
         id="path994"
         style="opacity:1;stroke-opacity:1;fill-opacity:1;stroke:none;stroke-width:0.4;display:inline;fill:#26b042;stroke-miterlimit:4;stroke-dasharray:none"
         d="M62.99044875 146.207585C62.99044875 158.09057 52.5154195 171.1261125 44.0324955 171.2522175C35.32216975 171.381695 26.023158 158.09057 26.023157 146.207585C26.023158 134.3246025 34.29856925 124.69153 44.5068095 124.69153C54.71504225 124.69153 62.99044875 134.3246025 62.99044875 146.207585C62.99044875 146.207585 62.99044875 146.207585 62.99044875 146.207585" />
      <path
         id="path996"
         style="opacity:1;stroke-opacity:1;fill-opacity:1;stroke:none;stroke-width:0.4;display:inline;fill:#33b64e;stroke-miterlimit:4;stroke-dasharray:none"
         d="M60.373199 143.11347C60.373199 153.27526 51.415427 164.42267 44.161213 164.53051C36.712536 164.64123 28.760441 153.27526 28.76044 143.11347C28.760441 132.95168 35.837199 124.71391 44.566825 124.71391C53.296445 124.71391 60.373199 132.95168 60.373199 143.11347C60.373199 143.11347 60.373199 143.11347 60.373199 143.11347" />
    </g>
    <rect
       style="opacity:1;fill:#000000;fill-opacity:0.611788;stroke:none;stroke-width:0.465;stroke-miterlimit:4;stroke-dasharray:none;stroke-opacity:1"
       id="rect3693"
       width="53.546108"
       height="73.763573"
       x="79.287277"
       y="114.11099" />
    <path
       sodipodi:nodetypes="sssss"
       inkscape:connector-curvature="0"
       id="path872"
       d="m 70.842198,155.48993 c 0,17.04657 -15.026801,35.74651 -27.195855,35.92741 -12.495272,0.18575 -25.835034,-18.88084 -25.835035,-35.92741 1e-6,-17.04656 11.871372,-30.86554 26.515455,-30.86554 14.644071,0 26.515435,13.81898 26.515435,30.86554 z"
       style="display:inline;opacity:1;fill:#00a120;fill-opacity:0;stroke:#000000;stroke-width:0.372;stroke-opacity:1;stroke-miterlimit:4;stroke-dasharray:none"
       inkscape:export-filename="/home/ethan/git/HedgewarsImages/Assets/Weapons/AirMine2.png"
       inkscape:export-xdpi="95.129997"
       inkscape:export-ydpi="95.129997" />
    <path
       style="display:inline;opacity:1;fill:#33b64e;fill-opacity:0;stroke:none;stroke-width:0.1024925;stroke-opacity:0.8085104"
       d="m 60.373199,143.11347 c 0,10.16179 -8.957772,21.3092 -16.211986,21.41704 -7.448677,0.11072 -15.400772,-11.25525 -15.400773,-21.41704 1e-6,-10.16179 7.076759,-18.39956 15.806385,-18.39956 8.72962,0 15.806374,8.23777 15.806374,18.39956 z"
       id="path901"
       inkscape:connector-curvature="0"
       sodipodi:nodetypes="sssss"
       inkscape:export-filename="/home/ethan/git/HedgewarsImages/Assets/Weapons/AirMine2.png"
       inkscape:export-xdpi="95.129997"
       inkscape:export-ydpi="95.129997" />
    <g
       id="g3669"
       inkscape:export-filename="/home/ethan/git/HedgewarsImages/Assets/Weapons/AirMine2.png"
       inkscape:export-xdpi="95.129997"
       inkscape:export-ydpi="95.129997">
      <path
         sodipodi:nodetypes="ccccc"
         inkscape:connector-curvature="0"
         id="path841"
         d="m 51.334712,156.00221 c 0,2.49184 -2.811148,4.5119 -6.278876,4.5119 -3.467743,0 -6.278892,-2.02004 -6.278892,-4.5119 0,-2.49186 2.811149,-4.5119 6.278892,-4.5119 3.467728,0 6.278876,2.02005 6.278876,4.5119 z"
         style="opacity:1;fill:#ff2a2a;fill-opacity:1;stroke:#000000;stroke-width:0.44162881;stroke-opacity:1" />
      <path
         sodipodi:nodetypes="cccccc"
         inkscape:connector-curvature="0"
         id="path843"
         d="m 38.986504,154.7478 -0.443304,-2.30329 -0.421868,-2.26041 2.259206,0.80064 2.216366,0.73636 c -1.499667,0.65796 -3.072279,1.56428 -3.6104,3.0267 z"
         inkscape:transform-center-y="0.2021856"
         inkscape:transform-center-x="-0.26505559"
         style="opacity:1;fill:#ffff00;fill-opacity:1;stroke:#000000;stroke-width:0.29916933;stroke-opacity:1" />
      <path
         sodipodi:nodetypes="cccccc"
         inkscape:connector-curvature="0"
         id="path845"
         d="m 42.828533,151.58935 1.191936,-2.04064 1.191936,-2.04066 1.171287,2.05258 1.171287,2.05258 c -1.730662,-0.26018 -3.150843,-0.34696 -4.726446,-0.0239 z"
         inkscape:transform-center-y="-0.44769044"
         inkscape:transform-center-x="0.004550096"
         style="opacity:1;fill:#ffff00;fill-opacity:1;stroke:#000000;stroke-width:0.29916933;stroke-opacity:1" />
      <path
         sodipodi:nodetypes="cccccc"
         inkscape:connector-curvature="0"
         id="path847"
         d="m 47.497577,151.45366 2.239569,-0.75449 2.239584,-0.75451 -0.46637,2.31679 -0.46637,2.31678 c -0.942649,-1.49024 -2.287634,-2.30337 -3.546413,-3.12457 z"
         inkscape:transform-center-y="0.17824555"
         inkscape:transform-center-x="0.2883631"
         style="opacity:1;fill:#ffff00;fill-opacity:1;stroke:#000000;stroke-width:0.29916933;stroke-opacity:1" />
      <path
         style="opacity:1;fill:#ff5555;fill-opacity:1;stroke:none;stroke-width:0.36158726;stroke-opacity:1"
         d="m 50.128364,155.22254 c 0,2.0677 -2.271049,3.74393 -5.07253,3.74393 -2.801493,0 -5.072542,-1.67621 -5.072542,-3.74393 0,-2.06772 2.271049,-3.74394 5.072542,-3.74394 2.801481,0 5.07253,1.67622 5.07253,3.74394 z"
         id="path897"
         inkscape:connector-curvature="0"
         sodipodi:nodetypes="ccccc" />
      <path
         sodipodi:nodetypes="csccc"
         inkscape:connector-curvature="0"
         id="path849"
         d="m 49.166457,154.22047 c 0,1.51668 -1.840917,2.74736 -4.115923,2.75156 -2.275007,0.005 -4.12612,-1.21967 -4.138718,-2.73633 -0.01208,-1.51664 1.818108,-2.75411 4.093038,-2.76669 2.748733,0.008 4.216119,1.53365 4.161603,2.75146 z"
         style="opacity:1;fill:#ffff00;fill-opacity:1;stroke:#000000;stroke-width:0.36320591;stroke-opacity:1" />
      <path
         style="opacity:1;fill:#ffff86;fill-opacity:1;stroke:none;stroke-width:0.22267061;stroke-opacity:1"
         d="m 47.685218,153.32184 c 0,0.92984 -1.128611,1.68433 -2.523349,1.6869 -1.394738,0.003 -2.5296,-0.74773 -2.537323,-1.67755 -0.0074,-0.92981 1.114627,-1.68847 2.509318,-1.69618 1.685166,0.005 2.584776,0.94023 2.551354,1.68683 z"
         id="path899"
         inkscape:connector-curvature="0"
         sodipodi:nodetypes="csccc" />
    </g>
    <path
       sodipodi:nodetypes="ccccc"
       inkscape:connector-curvature="0"
       id="path3650"
       d="m 109.54305,166.58555 c 0,2.49184 -2.81115,4.5119 -6.27888,4.5119 -3.46774,0 -6.278889,-2.02004 -6.278889,-4.5119 0,-2.49186 2.811149,-4.5119 6.278889,-4.5119 3.46773,0 6.27888,2.02005 6.27888,4.5119 z"
       style="opacity:1;fill:#ff2a2a;fill-opacity:1;stroke:#000000;stroke-width:0.441629;stroke-opacity:1" />
    <path
       sodipodi:nodetypes="cccccc"
       inkscape:connector-curvature="0"
       id="path3652"
       d="m 97.194841,165.33114 -0.443304,-2.30329 -0.421868,-2.26041 2.259206,0.80064 2.216365,0.73636 c -1.499666,0.65796 -3.072278,1.56428 -3.610399,3.0267 z"
       inkscape:transform-center-y="0.2021856"
       inkscape:transform-center-x="-0.26505559"
       style="opacity:1;fill:#ffff00;fill-opacity:1;stroke:#000000;stroke-width:0.299169;stroke-opacity:1" />
    <path
       sodipodi:nodetypes="cccccc"
       inkscape:connector-curvature="0"
       id="path3654"
       d="m 105.70592,162.037 2.23957,-0.75449 2.23958,-0.75451 -0.46637,2.31679 -0.46637,2.31678 c -0.94265,-1.49024 -2.28763,-2.30337 -3.54641,-3.12457 z"
       inkscape:transform-center-y="0.17824555"
       inkscape:transform-center-x="0.2883631"
       style="opacity:1;fill:#ffff00;fill-opacity:1;stroke:#000000;stroke-width:0.299169;stroke-opacity:1" />
    <path
       style="opacity:1;fill:#ff5555;fill-opacity:1;stroke:none;stroke-width:0.361587;stroke-opacity:1"
       d="m 108.3367,165.80588 c 0,2.0677 -2.27105,3.74393 -5.07253,3.74393 -2.80149,0 -5.072541,-1.67621 -5.072541,-3.74393 0,-2.06772 2.271051,-3.74394 5.072541,-3.74394 2.80148,0 5.07253,1.67622 5.07253,3.74394 z"
       id="path3656"
       inkscape:connector-curvature="0"
       sodipodi:nodetypes="ccccc" />
    <path
       sodipodi:nodetypes="csccc"
       inkscape:connector-curvature="0"
       id="path3658"
       d="m 107.3748,164.80381 c 0,1.51668 -1.84092,2.74736 -4.11593,2.75156 -2.27501,0.005 -4.126119,-1.21967 -4.138717,-2.73633 -0.01208,-1.51664 1.818107,-2.75411 4.093037,-2.76669 2.74874,0.008 4.21612,1.53365 4.16161,2.75146 z"
       style="opacity:1;fill:#ffff00;fill-opacity:1;stroke:#000000;stroke-width:0.363206;stroke-opacity:1" />
    <path
       style="opacity:1;fill:#ffff86;fill-opacity:1;stroke:none;stroke-width:0.222671;stroke-opacity:1"
       d="m 105.89356,163.90518 c 0,0.92984 -1.12862,1.68433 -2.52335,1.6869 -1.39474,0.003 -2.5296,-0.74773 -2.53733,-1.67755 -0.007,-0.92981 1.11463,-1.68847 2.50932,-1.69618 1.68517,0.005 2.58478,0.94023 2.55136,1.68683 z"
       id="path3660"
       inkscape:connector-curvature="0"
       sodipodi:nodetypes="csccc" />
    <path
       id="rect1008"
       style="opacity:1;fill:#ffffff;fill-opacity:0.611788;stroke:none;stroke-width:0.392222;stroke-miterlimit:4;stroke-dasharray:none;stroke-opacity:1"
       d="m 88.795708,164.87334 0.04128,0.0511 c 0,0 1.097311,0.19214 1.112657,0.23312 0.01715,0.0457 -0.575887,0.27016 -1.153935,0.49009 l 0.0566,0.25464 c 0.704739,0.0287 1.436611,0.33562 1.44925,0.38657 0.01363,0.0549 -0.828847,0.30115 -1.505852,0.51032 v 0.41583 c 0.740336,0.079 1.712076,0.16514 1.719275,0.2228 0.0075,0.0599 -1.005017,0.28076 -1.719275,0.45443 v 0.35774 c 0.733986,0.12739 1.793475,0.28445 1.793689,0.34524 2.15e-4,0.0608 -1.060587,0.22215 -1.793689,0.35221 v 0.3559 c 0.7156,0.17129 1.734619,0.38957 1.727544,0.44966 -0.0068,0.0579 -0.986854,0.14787 -1.727544,0.22979 v 0.41105 c 0.680302,0.20752 1.535197,0.45349 1.521872,0.50884 -0.01239,0.0514 -0.752696,0.39127 -1.461467,0.42283 l -0.06041,0.21581 c 0.130296,0.049 0.232235,0.0898 0.358118,0.1375 2.311219,-0.8358 4.188389,-0.53525 6.389932,-1.10407 4.459057,-1.1521 10.018327,-2.60423 13.233287,-0.90809 4.6938,1.68898 5.04444,1.67045 6.53921,1.17737 l 0.0203,-0.16336 c -0.60032,-0.006 -1.14984,-0.41494 -1.16302,-0.45735 -0.0145,-0.0464 0.59809,-0.25455 1.19217,-0.45774 v -0.27732 c -0.69653,-0.0497 -1.46592,-0.35507 -1.47536,-0.4058 -0.01,-0.0536 0.7967,-0.26286 1.47536,-0.44744 l -0.0118,-0.2032 c -0.72383,-0.0987 -1.60417,-0.44825 -1.60773,-0.50382 -0.004,-0.0567 0.8498,-0.40964 1.56383,-0.55659 l 0.0557,-0.23204 c -0.71526,-0.14447 -1.6269,-0.31315 -1.62367,-0.36987 0.003,-0.0558 0.89957,-0.16875 1.62367,-0.27023 v -0.26052 c -0.68173,-0.18275 -1.49741,-0.57014 -1.48776,-0.62409 0.009,-0.0511 0.77213,-0.47271 1.47184,-0.52524 l 0.0159,-0.15788 c -0.0616,-0.0208 -0.10796,-0.0376 -0.1695,-0.0585 -1.50068,-0.32008 -3.11154,-0.47342 -4.55742,-0.60852 -0.1769,-0.0165 -1.06465,-0.0127 -1.23784,-0.0463 -4.53151,-0.87847 -7.9997,-0.0176 -12.35931,0.43789 -0.277798,0.029 -2.209547,0.2853 -2.504537,0.279 -1.778591,-0.0353 -3.812756,-0.0921 -5.741365,-0.0617 z"
       sodipodi:nodetypes="ccsccsccsccsccsccscccsccccccsccccccccccccsssscc" />
    <path
       id="rect8546"
       style="opacity:1;fill:#ffffff;fill-opacity:1;stroke-width:0.465"
       d="m 89.496588,154.86794 c 6.136898,-0.74564 9.434308,-0.60794 13.244762,-0.12472 l -0.3774,3.99241 c -3.160204,-1.73848 -6.504934,-1.08032 -12.514585,0.34638 z"
       sodipodi:nodetypes="ccccc" />
    <path
       id="rect7982"
       style="opacity:1;fill:#ffffff;fill-opacity:0.890936;stroke-width:0.575187"
       d="m 107.86926,149.26969 c 6.24589,-1.29494 6.13343,-0.42845 7.30956,0 v 3.9541 c -1.7291,-1.31673 -4.54542,-0.6098 -7.30956,0 z"
       sodipodi:nodetypes="ccccc" />
    <path
       id="path10749"
       style="opacity:1;fill:#ffffff;fill-opacity:0.635105;stroke-width:0.263601"
       d="m 97.168776,164.8824 c 0.339896,-0.45193 1.325417,-0.29209 1.325417,-0.29209 0.855114,1.46383 1.043689,2.26083 3.990047,3.80996 0.0338,1.03142 -4.08238,1.34651 -4.281453,0.90664 -1.245153,-1.68699 -1.606658,-2.89129 -1.034011,-4.42451 z"
       sodipodi:nodetypes="ccccc" />
    <path
       id="path13505"
       style="opacity:1;fill:#ffffff;fill-opacity:0.635105;stroke-width:0.263601"
       d="m 117.27718,154.93267 c -0.53876,-0.59356 -1.34889,-0.45417 -1.34889,-0.45417 -0.85511,1.46383 -0.80131,3.2386 -0.46265,4.80718 0.45464,0.21791 0.9242,0.44518 1.18774,0.26725 1.38643,-1.65425 1.38459,-3.09068 0.6238,-4.62026 z"
       sodipodi:nodetypes="ccccc" />
    <path
       id="path17726"
       style="opacity:1;fill:#ffffff;fill-opacity:0.611788;stroke:#000000;stroke-width:0.1;stroke-miterlimit:4;stroke-dasharray:none;stroke-opacity:1"
       d="m 30.622022,154.37563 0.04128,0.0511 c 0,0 1.097311,0.19214 1.112657,0.23312 0.01715,0.0457 -0.575887,0.27016 -1.153935,0.49009 l 0.0566,0.25464 c 0.704739,0.0287 1.436611,0.33562 1.44925,0.38657 0.01363,0.0549 -0.828847,0.30115 -1.505852,0.51032 v 0.41583 c 0.740336,0.079 1.712076,0.16514 1.719275,0.2228 0.0075,0.0599 -1.005017,0.28076 -1.719275,0.45443 v 0.35774 c 0.733986,0.12739 1.793475,0.28445 1.793689,0.34524 2.15e-4,0.0608 -1.060587,0.22215 -1.793689,0.35221 v 0.3559 c 0.7156,0.17129 1.734619,0.38957 1.727544,0.44966 -0.0068,0.0579 -0.986854,0.14787 -1.727544,0.22979 v 0.41105 c 0.680302,0.20752 1.535197,0.45349 1.521872,0.50884 -0.01239,0.0514 -0.752696,0.39127 -1.461467,0.42283 l -0.06041,0.21581 c 0.130296,0.049 0.232235,0.0898 0.358118,0.1375 2.311219,-0.8358 4.188389,-0.53525 6.389932,-1.10407 4.459057,-1.1521 10.018327,-2.60423 13.233287,-0.90809 4.6938,1.68898 5.04444,1.67045 6.53921,1.17737 l 0.0203,-0.16336 c -0.60032,-0.006 -1.14984,-0.41494 -1.16302,-0.45735 -0.0145,-0.0464 0.59809,-0.25455 1.19217,-0.45774 v -0.27732 c -0.69653,-0.0497 -1.46592,-0.35507 -1.47536,-0.4058 -0.01,-0.0536 0.7967,-0.26286 1.47536,-0.44744 l -0.0118,-0.2032 c -0.72383,-0.0987 -1.60417,-0.44825 -1.60773,-0.50382 -0.004,-0.0567 0.8498,-0.40964 1.56383,-0.55659 l 0.0557,-0.23204 c -0.71526,-0.14447 -1.6269,-0.31315 -1.62367,-0.36987 0.003,-0.0558 0.89957,-0.16875 1.62367,-0.27023 v -0.26052 c -0.68173,-0.18275 -1.49741,-0.57014 -1.48776,-0.62409 0.009,-0.0511 0.77213,-0.47271 1.47184,-0.52524 l 0.0159,-0.15788 c -0.0616,-0.0208 -0.10796,-0.0376 -0.1695,-0.0585 -1.50068,-0.32008 -3.11154,-0.47342 -4.55742,-0.60852 -0.1769,-0.0165 -1.06465,-0.0127 -1.23784,-0.0463 -4.53151,-0.87847 -7.9997,-0.0176 -12.35931,0.43789 -0.277798,0.029 -2.209547,0.2853 -2.504537,0.279 -1.778591,-0.0353 -3.812756,-0.0921 -5.741365,-0.0617 z"
       sodipodi:nodetypes="ccsccsccsccsccsccscccsccccccsccccccccccccsssscc"
       inkscape:export-filename="/home/ethan/git/HedgewarsImages/Assets/Weapons/AirMine2.png"
       inkscape:export-xdpi="95.129997"
       inkscape:export-ydpi="95.129997" />
    <path
       id="path17728"
       style="opacity:1;fill:#ffffff;fill-opacity:0.635105;stroke-width:0.263601"
       d="m 38.99509,154.38469 c 0.339896,-0.45193 1.325417,-0.29209 1.325417,-0.29209 0.855114,1.46383 1.043689,2.26083 3.990047,3.80996 0.0338,1.03142 -4.08238,1.34651 -4.281453,0.90664 -1.245153,-1.68699 -1.606658,-2.89129 -1.034011,-4.42451 z"
       sodipodi:nodetypes="ccccc"
       inkscape:export-filename="/home/ethan/git/HedgewarsImages/Assets/Weapons/AirMine2.png"
       inkscape:export-xdpi="95.129997"
       inkscape:export-ydpi="95.129997" />
  </g>
</svg>
